<svg width="221" height="32" viewBox="0 0 221 32" fill="none" xmlns="http://www.w3.org/2000/svg">
<path d="M59.1339 25H56.4939V10.144H50.8779V7.768H64.7499V10.144H59.1339V25ZM70.4354 25.24C66.7634 25.24 64.2914 22.576 64.2914 18.568C64.2914 14.8 66.8594 12.04 70.3634 12.04C74.1554 12.04 76.6754 15.112 76.2434 19.24H66.7634C66.9554 21.832 68.2514 23.344 70.3874 23.344C72.1874 23.344 73.4354 22.36 73.8434 20.704H76.2434C75.6194 23.536 73.4354 25.24 70.4354 25.24ZM70.3154 13.864C68.3714 13.864 67.0514 15.256 66.7874 17.632H73.6754C73.5554 15.28 72.2834 13.864 70.3154 13.864ZM83.6023 25.264C80.1223 25.264 77.6743 22.528 77.6743 18.64C77.6743 14.8 80.1703 12.04 83.6023 12.04C86.7463 12.04 89.0262 14.128 89.4823 17.44H86.9383C86.6743 15.4 85.4023 14.176 83.6263 14.176C81.5383 14.176 80.1703 15.952 80.1703 18.64C80.1703 21.352 81.5383 23.104 83.6263 23.104C85.4263 23.104 86.6743 21.904 86.9623 19.84H89.4823C89.0503 23.2 86.7943 25.264 83.6023 25.264ZM94.3462 17.824V25H91.9222V7.768H94.3462V14.32C95.1862 12.952 96.4822 12.04 98.2342 12.04C100.85 12.04 102.578 13.72 102.578 16.768V25H100.154V17.584C100.154 15.4 99.1942 14.176 97.3942 14.176C95.7382 14.176 94.3462 15.568 94.3462 17.824ZM115.888 12.28L109.528 29.632H106.888L108.712 24.832L103.696 12.28H106.312L110.008 21.976L113.44 12.28H115.888Z" fill="#330033"/>
<path d="M132.705 21.208C132.705 23.704 130.761 25.24 127.377 25.24C124.017 25.24 122.025 23.584 121.785 20.848H124.113C124.209 22.432 125.481 23.416 127.425 23.416C129.129 23.416 130.257 22.816 130.257 21.616C130.257 20.56 129.609 20.104 128.025 19.792L125.961 19.408C123.609 18.952 122.289 17.752 122.289 15.832C122.289 13.6 124.233 12.04 127.185 12.04C130.233 12.04 132.297 13.672 132.513 16.288H130.185C130.041 14.752 128.913 13.864 127.209 13.864C125.673 13.864 124.641 14.512 124.641 15.616C124.641 16.648 125.289 17.128 126.825 17.416L128.985 17.824C131.505 18.28 132.705 19.384 132.705 21.208ZM140.68 25.24C137.08 25.24 134.44 22.408 134.44 18.64C134.44 14.872 137.08 12.04 140.68 12.04C144.28 12.04 146.92 14.872 146.92 18.64C146.92 22.408 144.28 25.24 140.68 25.24ZM140.68 23.104C142.768 23.104 144.424 21.424 144.424 18.64C144.424 15.856 142.768 14.2 140.68 14.2C138.592 14.2 136.96 15.856 136.96 18.64C136.96 21.424 138.592 23.104 140.68 23.104ZM152.615 25H150.191V14.344H147.383V12.28H150.191V11.344C150.191 8.896 151.511 7.552 153.911 7.552C154.631 7.552 155.207 7.672 155.687 7.864V9.832C155.303 9.664 154.871 9.616 154.439 9.616C153.287 9.616 152.615 10.144 152.615 11.368V12.28H156.167V14.344H152.615V25ZM166.012 22.648V24.784C165.268 25.12 164.62 25.24 163.852 25.24C161.5 25.24 159.868 23.968 159.868 21.16V14.344H157.06V12.28H159.868V8.512H162.292V12.28H166.132V14.344H162.292V20.608C162.292 22.36 163.132 22.984 164.428 22.984C165.004 22.984 165.508 22.888 166.012 22.648ZM178.958 25L176.078 15.544L173.174 25H170.726L167.054 12.28H169.43L171.998 21.544L174.878 12.28H177.278L180.11 21.568L182.678 12.28H185.078L181.382 25H178.958ZM194.361 25V23.032C193.569 24.448 192.153 25.24 190.281 25.24C187.641 25.24 185.913 23.728 185.913 21.4C185.913 18.904 187.905 17.608 191.697 17.608C192.441 17.608 193.041 17.632 194.073 17.752V16.816C194.073 14.992 193.089 13.96 191.409 13.96C189.633 13.96 188.553 15.016 188.481 16.792H186.273C186.393 13.936 188.433 12.04 191.409 12.04C194.553 12.04 196.377 13.816 196.377 16.84V25H194.361ZM188.217 21.328C188.217 22.648 189.201 23.512 190.761 23.512C192.801 23.512 194.073 22.24 194.073 20.296V19.264C193.137 19.144 192.465 19.12 191.841 19.12C189.417 19.12 188.217 19.84 188.217 21.328ZM202.042 18.496V25H199.618V12.28H201.874V14.968C202.762 13.216 204.682 12.112 206.77 12.112V14.632C204.034 14.488 202.042 15.688 202.042 18.496ZM213.873 25.24C210.201 25.24 207.729 22.576 207.729 18.568C207.729 14.8 210.297 12.04 213.801 12.04C217.593 12.04 220.113 15.112 219.681 19.24H210.201C210.393 21.832 211.689 23.344 213.825 23.344C215.625 23.344 216.873 22.36 217.281 20.704H219.681C219.057 23.536 216.873 25.24 213.873 25.24ZM213.753 13.864C211.809 13.864 210.489 15.256 210.225 17.632H217.113C216.993 15.28 215.721 13.864 213.753 13.864Z" fill="#303030"/>
<circle cx="15" cy="17" r="15" fill="#F6FFBC"/>
<circle cx="25" cy="17" r="15" fill="#FFC2C2"/>
</svg>
